<?xml version="1.0" encoding="UTF-8"?>
<svg id="Artwork" xmlns="http://www.w3.org/2000/svg" xmlns:xlink="http://www.w3.org/1999/xlink" viewBox="0 0 1501 1057">
  <defs>
    <style>
      .cls-1 {
        fill: url(#linear-gradient-2);
      }

      .cls-2 {
        fill: url(#linear-gradient);
      }

      .cls-3 {
        fill: #352365;
      }
    </style>
    <linearGradient id="linear-gradient" x1="278.79" y1="440.06" x2="1129.36" y2="440.06" gradientUnits="userSpaceOnUse">
      <stop offset="0" stop-color="#22c4f4"/>
      <stop offset=".49" stop-color="#8c68ad"/>
      <stop offset="1" stop-color="#d74d9b"/>
    </linearGradient>
    <linearGradient id="linear-gradient-2" x1="495.5" y1="178.96" x2="940.73" y2="344.98" gradientUnits="userSpaceOnUse">
      <stop offset="0" stop-color="#fcb97a"/>
      <stop offset="1" stop-color="#d74d9b"/>
    </linearGradient>
  </defs>
  <g>
    <path class="cls-2" d="M1061.83,277.7c-35.06-35.06-81.31-58.93-132.75-65.6-9.71-1.28-19.6-1.93-29.62-1.93h-46.73c4.9,14.63,7.54,30.29,7.54,46.57v37.72h24.16c17.13.01,33.59,3.01,48.88,8.52,56.23,20.2,96.7,74.15,96.7,137.1,0,80.07-65.5,145.6-145.58,145.6h-360.72c-80.07,0-145.58-65.53-145.58-145.6,0-40.04,16.38-76.45,42.77-102.83,12.27-12.27,26.72-22.37,42.67-29.7,18.36-8.38,38.73-13.07,60.14-13.07h29.72c-3.19-12.03-4.88-24.69-4.88-37.72,0-16.29,2.63-31.94,7.54-46.58h-47.41c-16.07,0-31.75,1.67-46.9,4.86-104.16,21.79-183,114.67-183,225.05,0,63.21,25.88,120.69,67.53,162.37,41.68,41.66,99.16,67.53,162.37,67.53h390.77c126.44,0,229.9-103.46,229.9-229.9,0-63.21-25.85-120.69-67.53-162.37Z"/>
    <path class="cls-1" d="M937.45,212.1c-20.85-109.89-117.43-192.96-233.36-192.96s-214.25,84.57-233.94,195.88c-2.42,13.55-3.67,27.5-3.67,41.73,0,17.42,1.88,34.43,5.46,50.79,9.83,45.21,32.57,85.63,64.13,117.21,43.01,42.98,102.42,69.59,168.02,69.59h237.59v-237.59c0-15.27-1.45-30.18-4.23-44.65ZM851.23,403.9h-147.15c-2.38,0-4.75-.07-7.1-.18-.67-.03-1.34-.09-2.01-.13-1.67-.1-3.32-.22-4.97-.38-.81-.08-1.62-.17-2.43-.26-1.51-.17-3.02-.36-4.52-.57-.83-.12-1.65-.24-2.47-.37-1.53-.25-3.05-.52-4.56-.81-.74-.14-1.49-.28-2.22-.43-1.89-.39-3.76-.83-5.61-1.3-.33-.08-.67-.15-1.01-.24-2.18-.56-4.33-1.18-6.46-1.84-.66-.2-1.31-.43-1.97-.64-1.47-.48-2.94-.97-4.39-1.49-.81-.29-1.6-.59-2.4-.9-1.3-.49-2.59-1-3.87-1.53-.82-.34-1.63-.68-2.45-1.03-1.27-.55-2.53-1.13-3.79-1.71-.77-.36-1.53-.71-2.29-1.08-1.42-.69-2.81-1.42-4.2-2.15-.56-.3-1.13-.58-1.68-.88-1.9-1.03-3.77-2.11-5.61-3.23-.59-.36-1.16-.74-1.75-1.1-1.28-.8-2.54-1.6-3.79-2.43-.73-.49-1.45-.99-2.18-1.5-1.09-.75-2.16-1.51-3.23-2.29-.74-.54-1.47-1.09-2.2-1.65-1.04-.8-2.07-1.61-3.09-2.43-.69-.56-1.39-1.11-2.07-1.68-1.1-.92-2.18-1.87-3.25-2.82-.56-.5-1.13-.98-1.69-1.49-1.57-1.44-3.12-2.91-4.63-4.41-.42-.42-.83-.86-1.24-1.29-1.11-1.14-2.22-2.28-3.29-3.45-.57-.62-1.13-1.26-1.69-1.89-.9-1.01-1.78-2.03-2.65-3.06-.57-.68-1.14-1.38-1.7-2.07-.84-1.04-1.66-2.08-2.47-3.14-.53-.69-1.06-1.39-1.58-2.09-.85-1.16-1.68-2.34-2.5-3.52-.43-.62-.87-1.23-1.29-1.85-1.21-1.81-2.39-3.63-3.52-5.49-.1-.16-.19-.33-.29-.5-1.04-1.72-2.04-3.47-3.01-5.24-.34-.63-.67-1.26-1-1.89-.71-1.34-1.4-2.68-2.07-4.04-.35-.72-.69-1.44-1.03-2.16-.62-1.33-1.23-2.67-1.82-4.02-.31-.71-.62-1.43-.92-2.14-.61-1.47-1.19-2.96-1.75-4.45-.23-.6-.46-1.19-.68-1.79-1.47-4.05-2.78-8.18-3.89-12.39-.05-.17-.08-.35-.12-.53-.69-2.64-1.3-5.3-1.84-7.99-.18-.91-.33-1.84-.49-2.75-.34-1.9-.66-3.8-.94-5.73-.16-1.1-.29-2.21-.42-3.33-.22-1.85-.4-3.71-.54-5.59-.08-1.05-.18-2.1-.24-3.15-.15-2.58-.24-5.17-.25-7.78,0-.29-.03-.58-.03-.88,0-2.39.07-4.76.19-7.12.02-.52.06-1.03.09-1.55.11-1.83.24-3.66.42-5.47.06-.61.12-1.22.19-1.84.2-1.82.43-3.63.69-5.43.07-.49.13-.98.21-1.46.71-4.54,1.62-9,2.74-13.39.16-.64.34-1.27.51-1.9.39-1.47.8-2.92,1.24-4.37.27-.88.54-1.76.82-2.63.15-.47.29-.95.44-1.42.15-.44.33-.87.48-1.31.62-1.81,1.28-3.61,1.97-5.39.31-.8.62-1.6.95-2.4.73-1.79,1.5-3.55,2.3-5.3.32-.7.62-1.41.95-2.1,1.14-2.39,2.32-4.75,3.58-7.07.08-.14.17-.28.25-.43,1.18-2.16,2.42-4.28,3.7-6.36.49-.8,1.01-1.57,1.51-2.36.91-1.42,1.84-2.84,2.8-4.22.6-.87,1.22-1.73,1.84-2.59.93-1.29,1.88-2.56,2.85-3.82.65-.84,1.3-1.68,1.97-2.51,1.05-1.29,2.12-2.56,3.21-3.82.63-.72,1.24-1.46,1.88-2.17,1.56-1.74,3.17-3.43,4.81-5.09.18-.18.34-.37.51-.54,26.63-26.63,63.43-43.11,104.07-43.11s77.42,16.48,104.04,43.11c.18.18.34.37.51.54,1.64,1.66,3.25,3.36,4.82,5.1.64.71,1.24,1.44,1.87,2.15,1.09,1.26,2.17,2.53,3.22,3.83.67.82,1.32,1.66,1.97,2.5.97,1.26,1.93,2.53,2.86,3.82.62.86,1.24,1.71,1.84,2.58.96,1.39,1.88,2.8,2.8,4.22.51.79,1.03,1.57,1.52,2.37,1.29,2.1,2.53,4.23,3.72,6.39.07.13.15.26.22.39,1.26,2.32,2.45,4.69,3.58,7.08.33.69.63,1.39.94,2.09.8,1.76,1.58,3.53,2.31,5.32.32.79.63,1.59.94,2.38.69,1.79,1.35,3.59,1.98,5.41.15.44.33.86.48,1.3.16.47.29.94.44,1.41.28.88.56,1.76.83,2.65.44,1.44.84,2.89,1.23,4.35.17.64.35,1.28.52,1.92,1.11,4.39,2.03,8.85,2.73,13.39.08.49.14.98.21,1.47.26,1.8.49,3.6.69,5.42.07.61.13,1.23.19,1.84.17,1.81.31,3.64.42,5.47.03.52.07,1.03.09,1.55.11,2.36.19,4.73.19,7.12v147.15Z"/>
  </g>
  <g>
    <path class="cls-3" d="M157.26,1031.76l-27.33-114.62-27.86,114.62h-34.49l-49.88-176.17h39.27l28.92,114.08,24.41-114.08h38.74l26.8,114.08,28.65-114.08h37.68l-49.35,176.17h-35.55Z"/>
    <path class="cls-3" d="M348.02,1031.76v-80.92c0-19.63-6.63-25.74-22.29-25.74-17.25,0-26.8,14.33-26.8,31.84v74.82h-34.49v-178.29h34.49v64.74c5.04-11.67,20.96-20.43,38.47-20.43,26.8,0,45.37,15.65,45.37,41.65v92.33h-34.76Z"/>
    <path class="cls-3" d="M493.14,1031.76c-1.06-3.18-1.85-7.7-2.12-11.67-8.22,9.02-22.02,15.13-39.53,15.13-29.72,0-43.51-14.59-43.51-35.82,0-37.68,25.21-41.92,59.96-46.7,17.25-2.39,22.02-5.84,22.02-14.86,0-8.49-8.49-13.53-22.02-13.53-15.65,0-22.02,7.7-23.61,19.37h-32.1c.53-27.06,15.39-45.9,57.31-45.9s55.72,18.57,55.72,51.47v82.51h-32.11ZM490.76,967.82c-3.45,3.45-9.55,5.31-22.29,7.7-19.63,3.71-26,9.28-26,20.43,0,9.82,5.84,14.59,16.72,14.59,17.78,0,31.04-13,31.31-28.39l.27-14.33Z"/>
    <path class="cls-3" d="M627.92,945.8h32.1v37.15c0,27.59-15.92,52.27-52.8,52.27s-53.33-24.41-53.33-52.53v-116.74h33.96v35.29h72.17v24.41h-72.17v53.59c0,16.45,5.84,26,19.9,26s20.16-9.29,20.16-25.47v-33.96Z"/>
    <path class="cls-3" d="M766.15,940.75c-1.86-12.74-8.76-17.24-24.41-17.24-13,0-20.43,3.18-20.43,10.88s7.16,10.88,21.23,14.86c14.86,4.25,28.92,7.16,39,11.14,13.8,5.58,21.49,14.59,21.49,31.57,0,27.06-19.9,43.25-57.04,43.25-40.06,0-62.35-18.84-62.88-45.37h35.55c0,12.2,10.35,19.37,27.06,19.37,12.2,0,23.08-3.71,23.08-13.53,0-9.28-9.82-12.2-20.96-14.86-22.02-5.31-34.23-9.02-43.51-14.86-12.2-7.7-16.45-17.78-16.45-29.45,0-22.02,15.12-38.73,54.92-38.73,37.68,0,54.66,14.86,56.51,42.98h-33.16Z"/>
    <path class="cls-3" d="M823.46,945.26c0-59.7,30.52-95.51,84.64-95.51s84.11,35.81,84.11,96.31-29.98,91.8-84.11,91.8-84.64-33.17-84.64-92.6ZM955.85,946.06c0-41.66-16.98-63.68-47.76-63.68s-48.29,22.02-48.29,63.68,17.78,60.22,48.29,60.22c26.53,0,47.76-18.57,47.76-60.22Z"/>
    <path class="cls-3" d="M1017.67,1031.76v-130.54h32.37v15.65c11.41-17.51,24.68-19.1,38.74-19.1h4.51v35.29c-3.18-.53-6.37-.8-9.55-.8-21.23,0-31.57,10.61-31.57,31.57v67.92h-34.49Z"/>
    <path class="cls-3" d="M1198.88,1031.76l-.27-15.92c-8.22,13.27-20.43,19.37-36.35,19.37-32.9,0-56.51-26-56.51-70.05,0-39.53,19.9-67.39,53.59-67.39,16.19,0,28.92,6.63,38.74,20.43v-64.74h33.96v178.29h-33.17ZM1199.41,969.67c0-28.39-9.82-42.45-28.92-42.45-20.16,0-29.72,13.53-29.72,40.33,0,23.35,12.21,39.53,29.45,39.53s29.19-15.39,29.19-37.41Z"/>
    <path class="cls-3" d="M1292.27,975.51c1.06,19.63,12.2,32.37,29.18,32.37,11.14,0,20.96-5.57,23.35-14.59h35.55c-7.96,26.8-29.45,41.92-57.31,41.92-43.51,0-65.27-23.88-65.27-71.11,0-40.33,23.08-66.33,63.15-66.33s61.29,26,61.29,77.74h-89.94ZM1346.66,953.75c-.53-19.37-13.26-28.65-26.8-28.65s-25.2,10.61-26.53,28.65h53.33Z"/>
    <path class="cls-3" d="M1407.68,1031.76v-130.54h32.37v15.65c11.41-17.51,24.68-19.1,38.74-19.1h4.51v35.29c-3.18-.53-6.37-.8-9.55-.8-21.23,0-31.57,10.61-31.57,31.57v67.92h-34.49Z"/>
  </g>
</svg>