<?xml version="1.0" encoding="UTF-8"?>
<svg id="Artwork" xmlns="http://www.w3.org/2000/svg" xmlns:xlink="http://www.w3.org/1999/xlink" viewBox="0 0 735 563">
  <defs>
    <style>
      .cls-1 {
        fill: url(#linear-gradient-2);
      }

      .cls-2 {
        fill: url(#linear-gradient);
      }
    </style>
    <linearGradient id="linear-gradient" x1="19.71" y1="356.54" x2="715.29" y2="356.54" gradientUnits="userSpaceOnUse">
      <stop offset="0" stop-color="#22c4f4"/>
      <stop offset=".49" stop-color="#8c68ad"/>
      <stop offset="1" stop-color="#d74d9b"/>
    </linearGradient>
    <linearGradient id="linear-gradient-2" x1="196.93" y1="143.02" x2="561.03" y2="278.79" gradientUnits="userSpaceOnUse">
      <stop offset="0" stop-color="#fcb97a"/>
      <stop offset="1" stop-color="#d74d9b"/>
    </linearGradient>
  </defs>
  <path class="cls-2" d="M660.06,223.76c-28.67-28.67-66.49-48.19-108.56-53.65-7.94-1.05-16.02-1.58-24.22-1.58h-38.21c4.01,11.96,6.16,24.77,6.16,38.09v30.84h19.76c14.01,0,27.46,2.46,39.97,6.96,45.98,16.52,79.08,60.64,79.08,112.11,0,65.48-53.57,119.07-119.05,119.07H220.01c-65.48,0-119.05-53.59-119.05-119.07,0-32.74,13.4-62.52,34.97-84.09,10.04-10.04,21.85-18.3,34.89-24.28,15.02-6.86,31.67-10.69,49.18-10.69h24.3c-2.61-9.84-3.99-20.19-3.99-30.84,0-13.32,2.15-26.12,6.16-38.1h-38.77c-13.14,0-25.96,1.36-38.35,3.97-85.18,17.82-149.65,93.78-149.65,184.03,0,51.69,21.16,98.7,55.23,132.78,34.08,34.06,81.09,55.23,132.78,55.23h319.56c103.4,0,188.01-84.61,188.01-188.01,0-51.69-21.14-98.7-55.23-132.78Z"/>
  <path class="cls-1" d="M558.34,170.12c-17.05-89.86-96.03-157.79-190.83-157.79s-175.2,69.16-191.31,160.19c-1.98,11.08-3,22.49-3,34.12,0,14.25,1.54,28.16,4.47,41.53,8.04,36.97,26.64,70.03,52.44,95.85,35.17,35.15,83.76,56.91,137.4,56.91h194.29v-194.29c0-12.49-1.19-24.68-3.46-36.51ZM487.84,326.96h-120.33c-1.95,0-3.88-.06-5.81-.15-.55-.03-1.09-.07-1.64-.1-1.36-.08-2.72-.18-4.07-.31-.67-.06-1.33-.14-1.99-.21-1.24-.14-2.47-.29-3.7-.47-.67-.1-1.35-.19-2.02-.3-1.25-.2-2.49-.43-3.73-.67-.61-.12-1.22-.23-1.82-.35-1.54-.32-3.07-.68-4.59-1.06-.27-.07-.55-.12-.82-.2-1.78-.46-3.54-.96-5.28-1.5-.54-.17-1.07-.35-1.61-.53-1.21-.39-2.41-.79-3.59-1.22-.66-.24-1.31-.49-1.96-.73-1.06-.4-2.12-.82-3.16-1.25-.67-.28-1.34-.56-2-.84-1.04-.45-2.07-.92-3.1-1.4-.63-.29-1.26-.58-1.88-.88-1.16-.57-2.3-1.16-3.44-1.76-.46-.24-.92-.47-1.38-.72-1.55-.85-3.08-1.73-4.59-2.64-.48-.29-.95-.6-1.43-.9-1.04-.65-2.08-1.31-3.1-1.99-.6-.4-1.19-.81-1.78-1.22-.89-.62-1.77-1.24-2.64-1.88-.6-.44-1.2-.89-1.8-1.35-.85-.65-1.69-1.31-2.53-1.99-.57-.46-1.13-.91-1.69-1.38-.9-.75-1.78-1.53-2.66-2.31-.46-.41-.93-.8-1.38-1.22-1.29-1.18-2.55-2.38-3.79-3.61-.35-.34-.68-.7-1.02-1.05-.91-.93-1.81-1.86-2.69-2.82-.47-.51-.92-1.03-1.38-1.55-.73-.83-1.46-1.66-2.17-2.5-.47-.56-.93-1.13-1.39-1.69-.69-.85-1.36-1.7-2.02-2.57-.43-.57-.87-1.13-1.29-1.71-.7-.95-1.38-1.91-2.05-2.88-.35-.51-.71-1-1.05-1.51-.99-1.48-1.95-2.97-2.88-4.49-.08-.13-.15-.27-.24-.41-.85-1.41-1.67-2.84-2.46-4.28-.28-.51-.54-1.03-.82-1.55-.58-1.09-1.15-2.19-1.69-3.3-.29-.59-.56-1.18-.84-1.77-.51-1.09-1.01-2.18-1.49-3.29-.25-.58-.51-1.17-.75-1.75-.5-1.2-.97-2.42-1.44-3.64-.18-.49-.38-.97-.56-1.46-1.2-3.31-2.27-6.69-3.18-10.14-.04-.14-.06-.29-.1-.43-.56-2.16-1.06-4.33-1.51-6.54-.15-.75-.27-1.5-.4-2.25-.28-1.55-.54-3.11-.77-4.68-.13-.9-.24-1.81-.35-2.72-.18-1.51-.32-3.04-.45-4.57-.07-.86-.15-1.71-.2-2.58-.12-2.11-.19-4.23-.21-6.36,0-.24-.02-.48-.02-.72,0-1.95.06-3.89.15-5.82.02-.42.05-.85.08-1.27.09-1.5.2-2.99.34-4.47.05-.5.1-1,.15-1.5.16-1.49.35-2.97.56-4.44.06-.4.11-.8.17-1.2.58-3.71,1.33-7.36,2.24-10.95.13-.52.28-1.04.42-1.56.32-1.2.66-2.39,1.02-3.58.22-.72.44-1.44.67-2.15.12-.39.23-.78.36-1.16.12-.36.27-.71.39-1.07.51-1.48,1.05-2.95,1.61-4.41.25-.66.51-1.31.77-1.96.6-1.46,1.23-2.9,1.88-4.33.26-.57.51-1.15.78-1.72.93-1.96,1.9-3.89,2.93-5.78.06-.12.14-.23.2-.35.97-1.76,1.98-3.5,3.03-5.2.4-.65.83-1.29,1.24-1.93.75-1.16,1.5-2.32,2.29-3.45.49-.71,1-1.41,1.5-2.12.76-1.05,1.54-2.09,2.33-3.12.53-.69,1.06-1.37,1.61-2.05.86-1.06,1.74-2.09,2.63-3.12.51-.59,1.01-1.19,1.54-1.77,1.28-1.42,2.59-2.81,3.93-4.17.14-.15.28-.3.42-.45,21.77-21.77,51.87-35.25,85.1-35.25s63.31,13.48,85.08,35.25c.14.14.28.3.42.44,1.35,1.36,2.66,2.75,3.94,4.17.52.58,1.02,1.17,1.53,1.76.89,1.03,1.78,2.07,2.64,3.13.55.67,1.08,1.36,1.61,2.05.8,1.03,1.57,2.07,2.34,3.12.51.7,1.01,1.4,1.5,2.11.78,1.14,1.54,2.29,2.29,3.45.41.65.84,1.28,1.24,1.94,1.05,1.72,2.07,3.46,3.04,5.23.06.11.12.21.18.32,1.03,1.9,2,3.83,2.93,5.79.27.56.51,1.14.77,1.71.66,1.44,1.29,2.88,1.89,4.35.26.65.52,1.3.77,1.95.57,1.46,1.11,2.93,1.62,4.42.12.36.27.7.39,1.06.13.38.24.77.36,1.15.23.72.46,1.44.68,2.17.36,1.18.69,2.36,1.01,3.56.14.52.29,1.05.42,1.57.91,3.59,1.66,7.24,2.24,10.95.06.4.11.8.17,1.2.21,1.47.4,2.94.56,4.43.05.5.11,1,.15,1.51.14,1.48.25,2.97.34,4.47.02.42.06.84.08,1.27.09,1.93.15,3.87.15,5.82v120.33Z"/>
</svg>