<?xml version="1.0" encoding="UTF-8"?>
<svg id="Artwork" xmlns="http://www.w3.org/2000/svg" xmlns:xlink="http://www.w3.org/1999/xlink" viewBox="0 0 1520 293">
  <defs>
    <style>
      .cls-1 {
        fill: url(#linear-gradient-2);
      }

      .cls-2 {
        fill: url(#linear-gradient);
      }

      .cls-3 {
        fill: #352365;
      }
    </style>
    <linearGradient id="linear-gradient" x1="40.74" y1="172.84" x2="376.23" y2="172.84" gradientUnits="userSpaceOnUse">
      <stop offset="0" stop-color="#22c4f4"/>
      <stop offset=".49" stop-color="#8c68ad"/>
      <stop offset="1" stop-color="#d74d9b"/>
    </linearGradient>
    <linearGradient id="linear-gradient-2" x1="126.21" y1="69.85" x2="301.83" y2="135.34" gradientUnits="userSpaceOnUse">
      <stop offset="0" stop-color="#fcb97a"/>
      <stop offset="1" stop-color="#d74d9b"/>
    </linearGradient>
  </defs>
  <g>
    <path class="cls-2" d="M349.59,108.8c-13.83-13.83-32.07-23.24-52.36-25.87-3.83-.51-7.73-.76-11.68-.76h-18.43c1.93,5.77,2.97,11.95,2.97,18.37v14.88h9.53c6.76,0,13.25,1.19,19.28,3.36,22.18,7.97,38.14,29.25,38.14,54.07,0,31.58-25.84,57.43-57.42,57.43h-142.28c-31.58,0-57.42-25.85-57.42-57.43,0-15.79,6.46-30.15,16.87-40.56,4.84-4.84,10.54-8.82,16.83-11.71,7.24-3.31,15.28-5.16,23.72-5.16h11.72c-1.26-4.75-1.93-9.74-1.93-14.88,0-6.42,1.04-12.6,2.97-18.37h-18.7c-6.34,0-12.52.66-18.5,1.92-41.08,8.6-72.18,45.23-72.18,88.76,0,24.93,10.21,47.6,26.64,64.04,16.44,16.43,39.11,26.64,64.04,26.64h154.13c49.87,0,90.68-40.81,90.68-90.68,0-24.93-10.2-47.6-26.64-64.04Z"/>
    <path class="cls-1" d="M300.53,82.93c-8.22-43.34-46.32-76.11-92.04-76.11s-84.5,33.36-92.27,77.26c-.95,5.35-1.45,10.85-1.45,16.46,0,6.87.74,13.58,2.15,20.03,3.88,17.83,12.85,33.77,25.29,46.23,16.96,16.95,40.4,27.45,66.27,27.45h93.71v-93.71c0-6.02-.57-11.9-1.67-17.61ZM266.53,158.58h-58.04c-.94,0-1.87-.03-2.8-.07-.26-.01-.53-.03-.79-.05-.66-.04-1.31-.09-1.96-.15-.32-.03-.64-.07-.96-.1-.6-.07-1.19-.14-1.78-.23-.33-.05-.65-.09-.97-.15-.6-.1-1.2-.21-1.8-.32-.29-.06-.59-.11-.88-.17-.74-.16-1.48-.33-2.21-.51-.13-.03-.27-.06-.4-.09-.86-.22-1.71-.46-2.55-.72-.26-.08-.52-.17-.78-.25-.58-.19-1.16-.38-1.73-.59-.32-.11-.63-.23-.95-.35-.51-.19-1.02-.39-1.53-.6-.32-.13-.64-.27-.96-.41-.5-.22-1-.44-1.49-.68-.3-.14-.61-.28-.9-.43-.56-.27-1.11-.56-1.66-.85-.22-.12-.45-.23-.66-.35-.75-.41-1.49-.83-2.21-1.27-.23-.14-.46-.29-.69-.43-.5-.31-1-.63-1.5-.96-.29-.19-.57-.39-.86-.59-.43-.3-.85-.6-1.27-.9-.29-.21-.58-.43-.87-.65-.41-.31-.82-.63-1.22-.96-.27-.22-.55-.44-.82-.66-.43-.36-.86-.74-1.28-1.11-.22-.2-.45-.39-.67-.59-.62-.57-1.23-1.15-1.83-1.74-.17-.17-.33-.34-.49-.51-.44-.45-.87-.9-1.3-1.36-.23-.25-.44-.5-.67-.75-.35-.4-.7-.8-1.05-1.21-.23-.27-.45-.54-.67-.82-.33-.41-.65-.82-.97-1.24-.21-.27-.42-.55-.62-.82-.34-.46-.66-.92-.99-1.39-.17-.24-.34-.48-.51-.73-.48-.71-.94-1.43-1.39-2.17-.04-.06-.07-.13-.11-.2-.41-.68-.81-1.37-1.19-2.07-.14-.25-.26-.5-.39-.75-.28-.53-.55-1.06-.82-1.59-.14-.28-.27-.57-.41-.85-.25-.52-.49-1.05-.72-1.58-.12-.28-.24-.56-.36-.85-.24-.58-.47-1.17-.69-1.76-.09-.24-.18-.47-.27-.71-.58-1.6-1.1-3.23-1.54-4.89-.02-.07-.03-.14-.05-.21-.27-1.04-.51-2.09-.73-3.15-.07-.36-.13-.72-.19-1.09-.14-.75-.26-1.5-.37-2.26-.06-.44-.12-.87-.17-1.31-.09-.73-.16-1.46-.21-2.2-.03-.41-.07-.83-.09-1.24-.06-1.02-.09-2.04-.1-3.07,0-.12-.01-.23-.01-.35,0-.94.03-1.88.07-2.81,0-.2.03-.41.04-.61.04-.72.1-1.44.16-2.16.02-.24.05-.48.07-.72.08-.72.17-1.43.27-2.14.03-.19.05-.39.08-.58.28-1.79.64-3.55,1.08-5.28.06-.25.14-.5.2-.75.16-.58.32-1.15.49-1.72.1-.35.21-.69.32-1.04.06-.19.11-.38.18-.56.06-.17.13-.34.19-.52.25-.72.51-1.42.78-2.13.12-.32.24-.63.37-.95.29-.7.59-1.4.91-2.09.13-.28.25-.56.38-.83.45-.94.92-1.88,1.41-2.79.03-.06.07-.11.1-.17.47-.85.95-1.69,1.46-2.51.19-.31.4-.62.6-.93.36-.56.72-1.12,1.1-1.67.24-.34.48-.68.73-1.02.37-.51.74-1.01,1.13-1.51.26-.33.51-.66.78-.99.41-.51.84-1.01,1.27-1.51.25-.29.49-.57.74-.85.62-.68,1.25-1.35,1.9-2.01.07-.07.13-.15.2-.21,10.5-10.5,25.02-17,41.05-17s30.53,6.5,41.04,17c.07.07.13.14.2.21.65.66,1.28,1.33,1.9,2.01.25.28.49.57.74.85.43.5.86,1,1.27,1.51.26.33.52.66.78.99.38.5.76,1,1.13,1.51.24.34.49.68.72,1.02.38.55.74,1.1,1.1,1.67.2.31.41.62.6.93.51.83,1,1.67,1.47,2.52.03.05.06.1.09.15.5.92.96,1.85,1.41,2.79.13.27.25.55.37.82.32.69.62,1.39.91,2.1.13.31.25.63.37.94.27.7.53,1.41.78,2.13.06.17.13.34.19.51.06.18.11.37.17.56.11.35.22.7.33,1.05.17.57.33,1.14.49,1.71.07.25.14.5.2.76.44,1.73.8,3.49,1.08,5.28.03.19.05.39.08.58.1.71.19,1.42.27,2.14.03.24.05.48.07.73.07.71.12,1.43.16,2.16.01.2.03.41.04.61.04.93.07,1.86.07,2.81v58.04Z"/>
  </g>
  <g>
    <path class="cls-3" d="M539.21,230.84l-19.51-81.84-19.89,81.84h-24.63l-35.61-125.79h28.04l20.65,81.46,17.43-81.46h27.66l19.13,81.46,20.46-81.46h26.9l-35.24,125.79h-25.38Z"/>
    <path class="cls-3" d="M675.41,230.84v-57.78c0-14.02-4.74-18.38-15.91-18.38-12.31,0-19.13,10.23-19.13,22.73v53.42h-24.63v-127.31h24.63v46.22c3.6-8.33,14.97-14.59,27.47-14.59,19.13,0,32.39,11.18,32.39,29.74v65.93h-24.82Z"/>
    <path class="cls-3" d="M779.04,230.84c-.76-2.27-1.32-5.5-1.51-8.34-5.87,6.44-15.72,10.8-28.23,10.8-21.22,0-31.07-10.42-31.07-25.58,0-26.9,18-29.93,42.81-33.34,12.31-1.7,15.73-4.17,15.73-10.61,0-6.06-6.06-9.66-15.73-9.66-11.18,0-15.72,5.5-16.86,13.83h-22.92c.38-19.32,10.99-32.77,40.92-32.77s39.78,13.26,39.78,36.75v58.92h-22.92ZM777.33,185.18c-2.46,2.46-6.82,3.79-15.91,5.5-14.02,2.65-18.57,6.63-18.57,14.59,0,7.01,4.17,10.42,11.94,10.42,12.69,0,22.16-9.28,22.35-20.27l.19-10.23Z"/>
    <path class="cls-3" d="M875.28,169.46h22.92v26.52c0,19.7-11.37,37.32-37.7,37.32s-38.08-17.43-38.08-37.51v-83.36h24.25v25.2h51.53v17.43h-51.53v38.27c0,11.74,4.17,18.57,14.21,18.57s14.4-6.63,14.4-18.19v-24.25Z"/>
    <path class="cls-3" d="M973.97,165.86c-1.33-9.09-6.25-12.31-17.43-12.31-9.28,0-14.59,2.27-14.59,7.77s5.12,7.77,15.16,10.61c10.61,3.03,20.65,5.12,27.85,7.96,9.85,3.98,15.35,10.42,15.35,22.54,0,19.32-14.21,30.88-40.73,30.88-28.61,0-44.52-13.45-44.9-32.39h25.39c0,8.71,7.39,13.83,19.32,13.83,8.71,0,16.48-2.65,16.48-9.66,0-6.63-7.01-8.71-14.97-10.61-15.73-3.79-24.44-6.44-31.07-10.61-8.71-5.5-11.74-12.69-11.74-21.03,0-15.72,10.8-27.66,39.21-27.66,26.9,0,39.03,10.61,40.35,30.69h-23.68Z"/>
    <path class="cls-3" d="M1014.89,169.08c0-42.62,21.79-68.2,60.43-68.2s60.05,25.57,60.05,68.77-21.41,65.55-60.05,65.55-60.43-23.68-60.43-66.12ZM1109.43,169.65c0-29.74-12.12-45.47-34.1-45.47s-34.48,15.72-34.48,45.47,12.69,43,34.48,43c18.95,0,34.1-13.26,34.1-43Z"/>
    <path class="cls-3" d="M1153.57,230.84v-93.21h23.11v11.18c8.15-12.5,17.62-13.64,27.66-13.64h3.22v25.2c-2.27-.38-4.55-.57-6.82-.57-15.16,0-22.54,7.58-22.54,22.54v48.5h-24.63Z"/>
    <path class="cls-3" d="M1282.95,230.84l-.19-11.37c-5.87,9.47-14.59,13.83-25.95,13.83-23.49,0-40.35-18.57-40.35-50.01,0-28.23,14.21-48.12,38.27-48.12,11.56,0,20.65,4.74,27.66,14.59v-46.22h24.25v127.31h-23.68ZM1283.33,186.51c0-20.27-7.01-30.31-20.65-30.31-14.4,0-21.22,9.66-21.22,28.79,0,16.67,8.72,28.23,21.03,28.23s20.84-10.99,20.84-26.71Z"/>
    <path class="cls-3" d="M1349.64,190.68c.76,14.02,8.71,23.11,20.84,23.11,7.96,0,14.97-3.98,16.67-10.42h25.39c-5.68,19.13-21.03,29.93-40.92,29.93-31.07,0-46.6-17.05-46.6-50.77,0-28.8,16.48-47.36,45.09-47.36s43.76,18.56,43.76,55.51h-64.22ZM1388.47,175.14c-.38-13.83-9.47-20.46-19.13-20.46s-18,7.58-18.94,20.46h38.08Z"/>
    <path class="cls-3" d="M1432.04,230.84v-93.21h23.11v11.18c8.15-12.5,17.62-13.64,27.66-13.64h3.22v25.2c-2.27-.38-4.55-.57-6.82-.57-15.16,0-22.54,7.58-22.54,22.54v48.5h-24.63Z"/>
  </g>
</svg>